<?xml version="1.0" encoding="UTF-8"?>
<svg id="Layer_2" data-name="Layer 2" xmlns="http://www.w3.org/2000/svg" viewBox="0 0 238.3 238.3">
  <defs>
    <style>
      .cls-1, .cls-2 {
        fill: #fff;
      }

      .cls-3 {
        fill: #000b1d;
      }

      .cls-2 {
        fill-rule: evenodd;
      }
    </style>
  </defs>
  <g id="adobe_icons_set" data-name="adobe icons set">
    <g id="icons">
      <g>
        <path class="cls-3" d="M37.23,0h163.83c20.56,0,37.23,16.67,37.23,37.23v163.83c0,20.56-16.67,37.23-37.23,37.23H37.23c-20.56,0-37.23-16.67-37.23-37.23V37.23C0,16.67,16.67,0,37.23,0"/>
        <path class="cls-2" d="M27.3,66.55h.09c11.1-.2,20.97-.31,29.6-.31,16.57,0,29.4,4.65,38.24,14.13,8.79,9.43,13.14,21.78,13.14,36.94.11,7.38-1.06,14.72-3.46,21.7-1.86,5.7-4.83,10.98-8.73,15.53-3.61,4.01-7.9,7.34-12.69,9.84-4.57,2.43-9.45,4.23-14.5,5.36h-.02c-4.85.96-9.79,1.43-14.74,1.41-9.66,0-18.6-.1-26.83-.31-.71,0-1.37-.34-1.76-.93-.32-.53-.48-1.14-.45-1.76v-99.05c-.02-.58.15-1.15.49-1.63.37-.48.92-.8,1.52-.89l.09-.02ZM78.52,91.37c-5.04-5.62-12.16-8.5-21.52-8.5-5,0-8.45.07-10.4.2v71.22c2.85.16,5.71.23,8.56.23,9.89,0,17.48-2.94,22.93-8.68,5.43-5.82,8.27-15.08,8.27-28.07,0-12.17-2.69-20.87-7.82-26.38l-.02-.02Z"/>
        <path class="cls-1" d="M177.79,168.69l-.02-.08c-5.65-23.61-9.42-39.73-11.32-48.36-.36,1.44-.77,3.04-1.25,4.79-1.14,4.44-2.99,11.12-5.55,20.05-2.46,8.82-4.62,16.67-6.46,23.55-.14.63-.49,1.2-.99,1.62-.52.4-1.16.61-1.82.59h-16.34c-.66.02-1.32-.17-1.88-.53-.55-.38-.97-.92-1.19-1.55l-.02-.06-19.74-72.5v-.03c-.21-.73-.07-1.51.36-2.12.49-.58,1.23-.9,1.99-.85h16.79c.58,0,1.15.19,1.61.55.43.35.77.81.98,1.33l.04.1.03.1c5.17,20.96,8.99,37.64,11.46,50.04,1.96-8.15,6.13-24.78,12.5-49.89l.02-.07.03-.07c.19-.55.51-1.04.93-1.44.46-.41,1.06-.64,1.68-.64h15.87c.62-.01,1.21.22,1.65.65.39.41.63.92.71,1.48,5.93,24.27,9.87,40.99,11.82,50.16,2.78-13.37,6.77-30.09,11.96-50.17.09-.62.41-1.18.9-1.57.51-.37,1.13-.57,1.76-.55h15.1c.67-.03,1.31.24,1.76.73.41.52.58,1.19.46,1.84v.09s-21.64,72.92-21.64,72.92l-.05.1c-.48,1.16-1.6,1.93-2.86,1.95h-16.47c-.63,0-1.25-.2-1.74-.59-.47-.39-.82-.91-1.02-1.49l-.03-.07Z"/>
      </g>
    </g>
  </g>
</svg>