<?xml version="1.0" encoding="UTF-8"?>
<svg id="Layer_2" data-name="Layer 2" xmlns="http://www.w3.org/2000/svg" viewBox="0 0 238.3 238.3">
  <defs>
    <style>
      .cls-1 {
        fill: #fff;
      }

      .cls-2 {
        fill: #000b1d;
      }
    </style>
  </defs>
  <g id="adobe_icons_set" data-name="adobe icons set">
    <g id="icons">
      <g>
        <path class="cls-2" d="M37.23,0h163.83c20.56,0,37.23,16.67,37.23,37.23v163.83c0,20.56-16.67,37.23-37.23,37.23H37.23c-20.56,0-37.23-16.67-37.23-37.23V37.23C0,16.67,16.67,0,37.23,0"/>
        <path class="cls-1" d="M84.65,70.5v98.67c0,1.05-.47,1.58-1.42,1.58h-18.01c-.84,0-1.26-.52-1.26-1.58v-98.67c0-.84.47-1.26,1.41-1.26h18.01c.61-.08,1.18.34,1.26.96.01.1.01.2,0,.31h0Z"/>
        <path class="cls-1" d="M143.12,172.89c-7.25.11-14.43-1.39-21.02-4.4-6.14-2.84-11.27-7.48-14.72-13.3-3.79-6.8-5.64-14.51-5.35-22.29-.06-7.23,1.79-14.34,5.35-20.63,3.67-6.4,9.07-11.64,15.59-15.12,7.62-3.97,16.13-5.92,24.72-5.66.52,0,1.21.03,2.05.08.84.05,2.68.13,3.84.24v-29.8c0-.73.31-1.1.95-1.1h18.26c.46-.07.88.25.94.71.01.08.01.15,0,.23v91.84c0,1.79.08,3.73.24,5.83.16,2.1.29,3.99.39,5.67.04.67-.34,1.3-.95,1.58-4.86,2.13-9.95,3.71-15.16,4.72-4.99.92-10.05,1.4-15.12,1.42M153.57,153.36v-42.98c-1.14-.23-2.29-.38-3.44-.47-1.07-.11-2.15-.16-3.23-.16-3.82-.04-7.6.82-11.02,2.52-7.51,3.58-12.07,11.38-11.49,19.68-.08,3.43.48,6.85,1.65,10.08.95,2.6,2.45,4.97,4.41,6.93,1.87,1.81,4.13,3.15,6.61,3.94,2.62.85,5.36,1.27,8.11,1.26,1.47,0,2.83-.05,4.1-.16,1.45-.09,2.89-.3,4.31-.63h0Z"/>
      </g>
    </g>
  </g>
</svg>