<?xml version="1.0" encoding="UTF-8"?>
<svg id="Layer_2" data-name="Layer 2" xmlns="http://www.w3.org/2000/svg" viewBox="0 0 238.3 238.3">
  <defs>
    <style>
      .cls-1 {
        fill: #fff;
      }

      .cls-2 {
        fill: #000b1d;
      }
    </style>
  </defs>
  <g id="adobe_icons_set" data-name="adobe icons set">
    <g id="icons">
      <g>
        <path class="cls-2" d="M37.23,0h163.83c20.56,0,37.23,16.67,37.23,37.23v163.83c0,20.56-16.67,37.23-37.23,37.23H37.23c-20.56,0-37.23-16.67-37.23-37.23V37.23C0,16.67,16.67,0,37.23,0"/>
        <path class="cls-1" d="M124.65,170.84h-62.03c-1.05,0-1.57-.58-1.57-1.73l.07-98.8c-.1-.68.37-1.32,1.06-1.42.12-.02.24-.02.36,0h18.24c.53-.07,1.02.3,1.1.83.01.09.01.18,0,.27l.25,79.92h45.61c.95,0,1.31.47,1.1,1.42l-2.62,18.1c-.01.47-.25.91-.63,1.18-.29.15-.61.23-.94.24"/>
        <path class="cls-1" d="M142.1,92.6h17.16c.96,0,1.79.65,2.05,1.57.37.69.64,1.43.79,2.2.22,1.01.38,2.04.47,3.07.1,1.1.16,2.28.16,3.54,2.95-3.42,6.49-6.27,10.47-8.41,4.19-2.41,8.96-3.63,13.8-3.54.39-.06.78.08,1.06.35.14.14.24.31.3.49.06.18.08.38.05.57v19.04c0,.74-.53,1.1-1.58,1.1-3.2-.23-6.42.01-9.55.71-2.82.56-5.57,1.44-8.19,2.61-2.3.86-4.45,2.08-6.37,3.61v49.87c0,.94-.42,1.42-1.26,1.42h-17.94c-.76.11-1.47-.42-1.58-1.18-.02-.13-.02-.26,0-.4v-54.12c0-2.31-.03-4.75-.08-7.32-.05-2.57-.13-5.12-.23-7.63-.07-2.16-.28-4.32-.63-6.45-.12-.48.17-.98.65-1.1.15-.04.3-.04.45,0h0Z"/>
      </g>
    </g>
  </g>
</svg>