<?xml version="1.0" encoding="UTF-8"?>
<svg id="Layer_2" data-name="Layer 2" xmlns="http://www.w3.org/2000/svg" viewBox="0 0 238.3 238.3">
  <defs>
    <style>
      .cls-1 {
        fill: #fff;
      }

      .cls-2 {
        fill: #000b1d;
      }
    </style>
  </defs>
  <g id="adobe_icons_set" data-name="adobe icons set">
    <g id="icons">
      <g>
        <path class="cls-2" d="M37.23,0h163.83c20.56,0,37.23,16.67,37.23,37.23v163.83c0,20.56-16.67,37.23-37.23,37.23H37.23c-20.56,0-37.23-16.67-37.23-37.23V37.23C0,16.67,16.67,0,37.23,0"/>
        <path class="cls-1" d="M56.19,168.66v-100.43c0-.85.43-1.28.85-1.28h22.13c2.98,0,6.81.85,9.79.85,6.78-.09,13.54.92,20,2.98,4.98,1.6,9.51,4.37,13.19,8.09,3.13,3.17,5.59,6.93,7.24,11.06,1.33,4.13,2.04,8.43,2.13,12.77.34,7.41-1.75,14.74-5.96,20.85-3.83,5.56-9.35,9.74-15.74,11.91-7.1,2.54-14.59,3.84-22.13,3.83h-4.69c-.85,0-4.68-.85-6.81-.85v31.06c.09.62-.34,1.19-.96,1.28-.11.01-.21.01-.32,0h-17.87c-.43-.85-.85-1.28-.85-2.13M76.62,85.68v32.77c1.28,0,5.11.85,6.38.85h5.11c3.76.09,7.51-.48,11.06-1.7,3.14-.86,5.96-2.64,8.08-5.11,2.25-2.91,3.31-6.56,2.98-10.21-.05-2.96-.78-5.87-2.13-8.51-1.62-2.52-4.01-4.46-6.81-5.53-3.69-1.32-7.57-2.04-11.49-2.13h-6.81c-2.14.14-4.28,0-6.38-.43"/>
        <path class="cls-1" d="M145.13,92.49h17.03c.95.17,1.76.81,2.13,1.7.43.85.85,1.28.85,2.13.35.95.5,1.97.43,2.98v3.41c2.95-3.51,6.56-6.4,10.64-8.51,4.06-2.56,8.83-3.75,13.62-3.41.85,0,1.28.43,1.28.85v19.57c0,.85-.43,1.28-1.7,1.28-3.15-.37-6.34-.08-9.36.85-2.82.4-5.55,1.26-8.09,2.55-2.35.86-4.52,2.16-6.38,3.83v49.79c.09.62-.34,1.19-.96,1.28-.11.01-.21.01-.32,0h-17.87c-.85,0-1.28-.43-1.7-1.28v-61.7c.07-2.56-.07-5.12-.43-7.66,0-2.13-.43-4.26-.43-6.38q0-.43.43-.85c0-.42.42-.42.85-.42"/>
      </g>
    </g>
  </g>
</svg>